<?xml version="1.0" encoding="iso-8859-1"?>
<!-- Generator: Adobe Illustrator 19.0.0, SVG Export Plug-In . SVG Version: 6.00 Build 0)  -->
<svg version="1.1" id="Capa_1" xmlns="http://www.w3.org/2000/svg" xmlns:xlink="http://www.w3.org/1999/xlink" x="0px" y="0px"
	 viewBox="0 0 512.001 512.001" style="enable-background:new 0 0 512.001 512.001;" xml:space="preserve">
<g>
	<g>
		<path d="M120.237,185.351l-18.258-8.183c-5.888-2.639-10.584-7.335-13.222-13.223l-8.183-18.257
			c-1.209-2.698-3.89-4.435-6.846-4.435c-2.957,0-5.637,1.737-6.846,4.435l-8.183,18.257c-2.639,5.888-7.334,10.584-13.222,13.223
			l-18.257,8.183c-2.698,1.209-4.435,3.89-4.435,6.846c0,2.957,1.736,5.637,4.435,6.846l18.258,8.183
			c5.888,2.639,10.584,7.334,13.223,13.222l8.183,18.258c1.209,2.698,3.89,4.435,6.846,4.435c2.957,0,5.637-1.737,6.846-4.435
			l8.183-18.258c2.639-5.888,7.335-10.584,13.223-13.222l18.257-8.183c2.698-1.208,4.435-3.889,4.435-6.846
			C124.671,189.24,122.935,186.56,120.237,185.351z M95.844,193.533c-9.253,4.146-16.632,11.525-20.779,20.778l-1.336,2.981
			l-1.336-2.981c-4.147-9.253-11.527-16.632-20.779-20.778l-2.981-1.336l2.98-1.335c9.253-4.146,16.632-11.525,20.78-20.778
			l1.336-2.981l1.336,2.981c4.147,9.253,11.527,16.632,20.779,20.778l2.981,1.335L95.844,193.533z"/>
	</g>
</g>
<g>
	<g>
		<path d="M489.492,49.182H287.311l-16.794-7.527c-5.888-2.639-10.584-7.334-13.222-13.222l-8.183-18.257
			c-1.209-2.698-3.889-4.435-6.846-4.435c-2.957,0-5.637,1.737-6.846,4.435l-8.183,18.257c-2.639,5.888-7.334,10.584-13.222,13.222
			l-16.794,7.527H22.508C10.096,49.182,0,59.278,0,71.689v36.14c0,4.143,3.359,7.503,7.503,7.503c4.143,0,7.503-3.359,7.503-7.503
			v-36.14c0-4.136,3.366-7.503,7.503-7.503H197.22l16.794,7.527c5.888,2.639,10.584,7.334,13.222,13.222l8.183,18.257
			c1.209,2.698,3.89,4.435,6.846,4.435s5.637-1.737,6.846-4.435l8.184-18.258c2.639-5.888,7.335-10.584,13.222-13.222l16.794-7.527
			h202.182c4.136,0,7.503,3.366,7.503,7.503V343.53H482.35l-17.024-7.63c-5.888-2.639-10.585-7.334-13.222-13.222l-8.183-18.257
			c-1.209-2.698-3.89-4.435-6.846-4.435c-2.957,0-5.637,1.737-6.846,4.435l-8.182,18.257c-2.639,5.888-7.336,10.584-13.224,13.222
			l-17.025,7.63h-8.062V111.59c0-1.99-0.79-3.898-2.198-5.305c-1.406-1.407-3.315-2.198-5.305-2.198l-99.233,0.001
			c-4.143,0-7.503,3.359-7.503,7.503v50.597c0,4.143,3.359,7.503,7.503,7.503s7.503-3.359,7.503-7.503v-43.095l84.228-0.001V168.3
			h-22.98c-4.143,0-7.503,3.359-7.503,7.503c0,4.143,3.359,7.503,7.503,7.503h22.98V213.6h-35.302c-4.143,0-7.503,3.359-7.503,7.503
			c0,4.143,3.359,7.503,7.503,7.503h35.302v30.294h-22.98c-4.143,0-7.503,3.359-7.503,7.503s3.359,7.503,7.503,7.503h22.98v30.294
			h-35.302c-4.143,0-7.503,3.359-7.503,7.503c0,4.143,3.359,7.503,7.503,7.503h35.302v24.224h-84.228V192.196
			c0-4.143-3.359-7.503-7.503-7.503s-7.503,3.359-7.503,7.503v151.334H227.34V189.227c0-1.457-0.422-2.813-1.141-3.964
			l-20.679-40.829c0-0.001-0.001-0.001-0.001-0.002l-18.351-36.231c-1.277-2.523-3.865-4.112-6.693-4.112
			c-2.828,0-5.416,1.59-6.693,4.112l-39.323,77.637c-0.02,0.039-0.032,0.08-0.051,0.119c-0.104,0.213-0.197,0.432-0.281,0.656
			c-0.025,0.068-0.051,0.134-0.074,0.202c-0.085,0.251-0.159,0.506-0.217,0.768c-0.006,0.028-0.015,0.055-0.021,0.082
			c-0.061,0.285-0.103,0.576-0.131,0.873c-0.007,0.076-0.007,0.151-0.011,0.227c-0.009,0.154-0.023,0.306-0.023,0.462v73.303
			c0,4.143,3.359,7.503,7.503,7.503s7.503-3.359,7.503-7.503v-65.8h63.682v146.698h-63.682V292.54c0-4.143-3.359-7.503-7.503-7.503
			s-7.503,3.359-7.503,7.503v50.991H15.005V137.841c0-4.143-3.359-7.503-7.503-7.503c-4.143,0-7.503,3.359-7.503,7.503v213.193
			v54.105c0,12.411,10.096,22.508,22.508,22.508H186.83l-4.279,37.28h-35.621c-4.143,0-7.503,3.359-7.503,7.503v26.328
			c0,4.143,3.359,7.503,7.503,7.503h218.143c4.143,0,7.503-3.359,7.503-7.503V472.43c0-4.143-3.359-7.503-7.503-7.503h-35.621
			l-4.279-37.28h164.322c12.411,0,22.508-10.096,22.508-22.508v-54.105V71.689C512,59.279,501.904,49.182,489.492,49.182z
			 M264.379,58.021c-9.252,4.147-16.632,11.527-20.778,20.779l-1.336,2.981l-1.335-2.981c-0.259-0.578-0.531-1.149-0.815-1.713
			c-4.261-8.45-11.289-15.179-19.964-19.066l-2.981-1.336l2.981-1.335c9.253-4.147,16.632-11.527,20.778-20.779l1.336-2.981
			l1.336,2.981c4.146,9.253,11.525,16.632,20.779,20.779l2.981,1.335L264.379,58.021z M153.361,181.725l13.372-26.401h27.482
			l13.372,26.401H153.361z M414.957,349.594c9.254-4.146,16.633-11.525,20.78-20.778l1.336-2.981l1.336,2.981
			c4.146,9.253,11.526,16.632,20.778,20.778l2.981,1.336l-2.981,1.336c-9.253,4.146-16.633,11.525-20.78,20.778l-1.335,2.981
			l-1.336-2.981c-4.147-9.253-11.527-16.632-20.779-20.778l-2.981-1.336L414.957,349.594z M357.57,479.93v11.323H154.431V479.93
			H357.57z M197.654,464.926l4.279-37.28h108.133l4.28,37.28H197.654z M496.995,405.139c0,4.137-3.366,7.503-7.503,7.503H22.508
			c-4.136,0-7.503-3.365-7.503-7.503v-46.603h377.253l16.564,7.424c5.888,2.639,10.584,7.335,13.222,13.222l8.183,18.257
			c1.209,2.698,3.89,4.435,6.846,4.435c2.957,0,5.637-1.737,6.846-4.435l8.183-18.257c2.639-5.888,7.335-10.584,13.223-13.222
			l16.563-7.424h15.107V405.139z"/>
	</g>
</g>
<g>
</g>
<g>
</g>
<g>
</g>
<g>
</g>
<g>
</g>
<g>
</g>
<g>
</g>
<g>
</g>
<g>
</g>
<g>
</g>
<g>
</g>
<g>
</g>
<g>
</g>
<g>
</g>
<g>
</g>
</svg>
