<?xml version="1.0" encoding="iso-8859-1"?>
<!-- Generator: Adobe Illustrator 19.0.0, SVG Export Plug-In . SVG Version: 6.00 Build 0)  -->
<svg version="1.1" id="Capa_1" xmlns="http://www.w3.org/2000/svg" xmlns:xlink="http://www.w3.org/1999/xlink" x="0px" y="0px"
	 viewBox="0 0 512 512" style="enable-background:new 0 0 512 512;" xml:space="preserve">
<g>
	<g>
		<path d="M504.504,381.734c-4.14,0-7.496,3.356-7.496,7.496v49.29c0,4.134-3.362,7.496-7.496,7.496H22.488
			c-4.133,0-7.496-3.362-7.496-7.496V210.594c0-4.14-3.356-7.496-7.496-7.496S0,206.454,0,210.594V438.52
			c0,12.401,10.088,22.488,22.488,22.488h467.023c12.4,0,22.488-10.088,22.488-22.488v-49.29
			C512,385.09,508.645,381.734,504.504,381.734z"/>
	</g>
</g>
<g>
	<g>
		<path d="M489.511,50.992H22.488C10.088,50.992,0,61.08,0,73.48v59.937v47.191c0,4.14,3.356,7.496,7.496,7.496
			s7.496-3.356,7.496-7.496v-39.695h482.015v218.332c0,4.14,3.356,7.496,7.496,7.496c4.141,0,7.496-3.356,7.496-7.496V133.418V73.48
			C512,61.08,501.912,50.992,489.511,50.992z M497.008,125.922H14.992V73.48c0-4.134,3.363-7.496,7.496-7.496h467.023
			c4.134,0,7.496,3.362,7.496,7.496V125.922z"/>
	</g>
</g>
<g>
	<g>
		<path d="M53.031,82.659c-6.93,0-12.566,5.637-12.566,12.566c0,6.929,5.637,12.566,12.566,12.566
			c6.928,0,12.566-5.637,12.566-12.566C65.596,88.296,59.96,82.659,53.031,82.659z"/>
	</g>
</g>
<g>
	<g>
		<path d="M90.629,82.659c-6.929,0-12.566,5.637-12.566,12.566c0,6.929,5.637,12.566,12.566,12.566
			c6.929,0,12.566-5.637,12.566-12.566C103.195,88.296,97.558,82.659,90.629,82.659z"/>
	</g>
</g>
<g>
	<g>
		<path d="M128.226,82.659c-6.929,0-12.566,5.637-12.566,12.566c0,6.929,5.637,12.566,12.566,12.566s12.566-5.637,12.566-12.566
			C140.793,88.296,135.156,82.659,128.226,82.659z"/>
	</g>
</g>
<g>
	<g>
		<path d="M273.97,243.01c4.141,0,7.496-3.356,7.496-7.496v-43.673c0-4.141-3.355-7.496-7.496-7.496H58.1
			c-4.14,0-7.496,3.356-7.496,7.496v127.815v21.538c0,4.14,3.356,7.496,7.496,7.496h153.623h62.245c4.141,0,7.496-3.356,7.496-7.496
			v-22.977v-52.719c0-4.14-3.355-7.496-7.496-7.496c-4.141,0-7.496,3.356-7.496,7.496v35.984l-61.448-54.828
			c-2.844-2.537-7.138-2.537-9.981,0l-39.008,34.806l-28.204-25.165c-2.844-2.537-7.138-2.537-9.981,0L65.596,302.92V199.337
			h200.877v36.177C266.474,239.653,269.829,243.01,273.97,243.01z M200.036,262.293l66.438,59.281v12.123h-51.89l-47.286-42.191
			L200.036,262.293z M122.843,271.934l57.209,51.046l12.012,10.718H65.596v-10.684L122.843,271.934z"/>
	</g>
</g>
<g>
	<g>
		<path d="M156.608,202.938c-13.547,0-24.57,11.022-24.57,24.57c0,13.548,11.022,24.57,24.57,24.57
			c13.548,0,24.569-11.022,24.569-24.57C181.177,213.96,170.155,202.938,156.608,202.938z M156.608,237.087
			c-5.28,0-9.578-4.297-9.578-9.578c0-5.281,4.297-9.578,9.578-9.578s9.577,4.297,9.577,9.578
			C166.185,232.79,161.888,237.087,156.608,237.087z"/>
	</g>
</g>
<g>
	<g>
		<path d="M451.223,184.345H317.858c-4.141,0-7.496,3.356-7.496,7.496s3.355,7.496,7.496,7.496h133.365
			c4.141,0,7.496-3.356,7.496-7.496S455.364,184.345,451.223,184.345z"/>
	</g>
</g>
<g>
	<g>
		<path d="M451.223,234.696H317.858c-4.141,0-7.496,3.356-7.496,7.496c0,4.141,3.355,7.496,7.496,7.496h133.365
			c4.141,0,7.496-3.356,7.496-7.496C458.719,238.052,455.364,234.696,451.223,234.696z"/>
	</g>
</g>
<g>
	<g>
		<path d="M451.223,285.049H317.858c-4.141,0-7.496,3.356-7.496,7.496s3.355,7.496,7.496,7.496h133.365
			c4.141,0,7.496-3.356,7.496-7.496S455.364,285.049,451.223,285.049z"/>
	</g>
</g>
<g>
	<g>
		<path d="M451.223,333.697H317.858c-4.141,0-7.496,3.356-7.496,7.496c0,4.14,3.355,7.496,7.496,7.496h133.365
			c4.141,0,7.496-3.356,7.496-7.496C458.719,337.053,455.364,333.697,451.223,333.697z"/>
	</g>
</g>
<g>
	<g>
		<path d="M451.222,392.119H61.544c-4.14,0-7.496,3.356-7.496,7.496s3.356,7.496,7.496,7.496h389.678
			c4.141,0,7.496-3.356,7.496-7.496S455.363,392.119,451.222,392.119z"/>
	</g>
</g>
<g>
</g>
<g>
</g>
<g>
</g>
<g>
</g>
<g>
</g>
<g>
</g>
<g>
</g>
<g>
</g>
<g>
</g>
<g>
</g>
<g>
</g>
<g>
</g>
<g>
</g>
<g>
</g>
<g>
</g>
</svg>
